<?xml version="1.0" standalone="no"?>
<!DOCTYPE svg PUBLIC "-//W3C//DTD SVG 20010904//EN"
 "http://www.w3.org/TR/2001/REC-SVG-20010904/DTD/svg10.dtd">
<svg version="1.0" xmlns="http://www.w3.org/2000/svg"
 width="200.000000pt" height="200.000000pt" viewBox="0 0 200.000000 200.000000"
 preserveAspectRatio="xMidYMid meet">

<g transform="translate(0.000000,200.000000) scale(0.100000,-0.100000)"
fill="#000000" stroke="none">
<path d="M345 1391 c-9 -11 -23 -52 -31 -92 -11 -60 -11 -75 0 -98 12 -23 10
-46 -17 -196 -24 -137 -34 -174 -52 -190 -15 -15 -25 -43 -34 -98 -21 -129 -1
-142 199 -133 148 6 127 6 338 2 100 -2 184 -5 185 -7 1 -2 9 -17 17 -33 29
-57 113 -59 177 -3 22 20 49 61 70 107 19 41 45 96 59 122 30 60 34 120 9 148
-18 20 -18 20 86 21 125 1 263 0 341 -2 42 -1 69 4 105 22 l48 24 19 95 c16
83 17 100 5 134 -21 61 -57 81 -141 81 -63 0 -72 2 -79 22 -10 28 -40 37 -95
28 -27 -4 -44 -2 -44 4 0 14 -64 30 -92 24 -28 -7 -78 -52 -78 -70 0 -10 -13
-13 -47 -12 -96 3 -124 10 -134 33 -16 35 -46 47 -127 51 -95 4 -152 -17 -177
-65 -13 -25 -20 -30 -38 -24 -12 5 -48 7 -79 6 l-57 -2 2 39 c1 27 -5 47 -17
60 -18 19 -30 21 -161 21 -128 0 -144 -2 -160 -19z m283 -30 c10 -6 11 -20 4
-60 l-9 -51 86 0 c64 0 93 -4 110 -16 23 -16 23 -21 17 -98 -5 -59 -4 -78 4
-70 6 6 13 46 16 88 4 81 32 144 73 166 27 14 88 13 94 -2 4 -10 7 -10 18 0
37 35 103 -13 79 -58 -6 -12 -8 -25 -4 -28 4 -4 9 -1 11 6 6 15 165 17 193 2
25 -13 31 -46 21 -111 -5 -30 -7 -56 -5 -58 10 -11 18 16 25 87 11 112 19 141
42 157 52 37 92 9 83 -57 l-5 -43 15 37 c13 29 24 38 57 46 46 12 57 9 57 -17
0 -10 6 -30 13 -44 13 -24 13 -24 36 -6 29 24 117 26 149 3 26 -18 29 -61 10
-160 -11 -62 -12 -64 -55 -80 -58 -23 -121 -14 -150 21 l-23 26 0 -24 c0 -39
-56 -51 -98 -21 -24 17 -29 59 -13 125 5 21 5 42 1 49 -9 15 -20 -48 -20 -116
0 -30 -5 -56 -13 -62 -14 -12 -181 -13 -214 -1 -13 5 -25 4 -28 -1 -3 -6 -56
-8 -123 -5 -143 5 -117 5 -240 0 -74 -2 -106 0 -115 9 -10 11 -15 10 -25 -1
-10 -11 -9 -13 8 -13 11 0 37 -7 57 -15 26 -11 39 -12 49 -4 7 5 34 9 61 7
l48 -3 -2 -37 -2 -38 160 0 c127 0 161 -3 165 -14 5 -12 -22 -75 -103 -244
-31 -65 -58 -84 -110 -80 -37 3 -38 4 -35 38 1 19 10 40 18 47 16 12 16 33 -3
141 -5 32 -6 32 -25 15 -20 -18 -18 -54 6 -83 7 -9 10 -28 7 -45 -5 -26 -11
-30 -44 -33 -21 -2 -44 2 -52 8 -9 8 -15 8 -20 0 -3 -5 -31 -10 -62 -10 -46 0
-56 3 -60 20 -5 20 -5 20 -30 0 -34 -26 -81 -34 -130 -21 -59 16 -73 36 -63
90 8 47 24 64 54 57 17 -4 17 -4 -1 17 -29 32 -34 55 -23 98 11 39 53 79 84
79 9 0 16 4 16 9 0 5 -9 7 -20 4 -11 -3 -31 -2 -45 1 -30 8 -33 36 -9 81 9 17
17 58 18 92 2 55 0 61 -15 52 -20 -10 -18 -5 -59 -238 -27 -154 -29 -175 -15
-185 13 -10 13 -20 2 -81 l-13 -70 -129 -3 c-86 -2 -131 1 -135 8 -12 19 16
130 37 150 20 18 27 48 70 297 14 87 15 106 4 127 -11 20 -12 36 -2 83 6 31
17 60 24 65 16 10 228 10 245 -1z"/>
<path d="M940 1297 c-14 -7 -28 -26 -34 -45 -5 -17 -12 -32 -16 -32 -3 0 -7
-29 -7 -64 0 -38 -7 -77 -17 -96 -9 -18 -16 -37 -16 -42 0 -14 80 -10 80 5 3
102 10 140 29 158 22 21 27 39 11 39 -18 0 -11 35 10 53 36 31 7 48 -40 24z"/>
<path d="M1057 1298 c-20 -11 -23 -44 -4 -51 19 -7 47 12 47 32 0 23 -20 32
-43 19z"/>
<path d="M1410 1284 c-11 -12 -11 -18 2 -30 13 -13 17 -13 38 4 13 11 20 24
16 30 -10 17 -41 15 -56 -4z"/>
<path d="M1553 1273 c-14 -3 -23 -12 -23 -23 0 -10 -4 -22 -10 -25 -5 -3 -10
-25 -10 -48 -1 -23 -4 -60 -9 -83 -11 -58 1 -84 39 -84 23 0 30 4 30 20 0 11
-5 20 -11 20 -8 0 -9 15 -5 48 10 68 16 82 32 82 8 0 14 9 14 20 0 11 -5 20
-11 20 -7 0 -10 12 -7 30 3 17 2 29 -1 29 -3 -1 -16 -4 -28 -6z"/>
<path d="M745 1220 c-11 -4 -40 -5 -64 -2 -43 5 -44 4 -39 -22 6 -31 -9 -127
-23 -140 -5 -6 -9 -18 -9 -28 0 -14 8 -18 41 -18 41 0 41 0 36 33 -8 52 12
135 35 143 35 11 42 -9 30 -85 -16 -95 -17 -93 21 -89 27 3 32 7 30 28 -1 14
3 53 9 88 8 46 7 66 -1 76 -15 18 -42 25 -66 16z"/>
<path d="M1266 1223 c-3 -3 -30 -5 -61 -4 -30 0 -55 -2 -56 -7 0 -4 -2 -34 -3
-67 -2 -34 -11 -75 -20 -92 -9 -18 -16 -34 -16 -38 0 -8 80 -6 81 3 0 4 2 38
4 76 4 78 22 109 53 89 9 -6 16 -19 15 -29 -1 -11 -5 -47 -9 -81 l-7 -63 30 0
c22 0 32 6 36 20 3 11 2 22 -3 25 -4 2 -3 27 2 56 13 69 7 100 -19 110 -11 4
-24 5 -27 2z"/>
<path d="M1695 1223 c-41 -10 -53 -35 -70 -139 -8 -55 10 -74 73 -74 53 0 92
21 92 51 0 26 -37 25 -59 -3 -24 -29 -51 -18 -51 22 l0 30 59 0 59 0 7 42 c6
36 4 44 -15 60 -21 17 -53 21 -95 11z m55 -58 c0 -21 -5 -25 -30 -25 -31 0
-39 17 -18 38 22 22 48 14 48 -13z"/>
<path d="M1022 1195 c6 -30 -10 -126 -23 -139 -5 -6 -9 -18 -9 -28 0 -14 8
-18 41 -18 40 0 41 1 38 33 -3 31 7 123 17 160 4 14 -1 17 -31 17 -34 0 -37
-2 -33 -25z"/>
<path d="M1107 1170 c-5 -30 -11 -65 -14 -77 -3 -13 -1 -23 4 -23 14 0 29 80
23 120 -5 33 -6 32 -13 -20z"/>
<path d="M1389 1213 c0 -5 -2 -35 -3 -68 -2 -34 -11 -75 -20 -92 -9 -18 -16
-34 -16 -38 0 -8 80 -6 81 3 0 4 2 30 3 57 1 28 6 71 10 98 l8 47 -31 0 c-17
0 -31 -3 -32 -7z"/>
<path d="M982 1161 c-16 -10 -32 -74 -25 -102 5 -19 6 -18 18 5 12 23 30 106
23 106 -1 0 -9 -4 -16 -9z"/>
<path d="M720 1148 c0 -7 -3 -31 -7 -53 -8 -55 5 -39 16 18 5 27 5 47 0 47 -5
0 -9 -6 -9 -12z"/>
<path d="M1225 1134 c-13 -59 -13 -64 -5 -69 4 -2 10 16 14 42 7 52 0 71 -9
27z"/>
<path d="M1585 1119 c-6 -37 -2 -59 10 -48 10 11 17 89 7 89 -6 0 -13 -18 -17
-41z"/>
<path d="M835 940 c-3 -6 -3 -19 0 -30 7 -22 -23 -200 -36 -215 -5 -5 -9 -17
-9 -28 0 -15 6 -18 38 -15 35 3 37 5 38 38 2 87 9 89 39 8 15 -40 22 -47 41
-46 33 3 37 23 14 68 -27 52 -25 64 10 93 41 35 40 57 -5 57 -27 0 -35 -4 -35
-18 0 -10 -12 -29 -26 -43 l-27 -24 6 45 c4 25 10 62 13 83 6 36 6 37 -24 37
-17 0 -34 -5 -37 -10z"/>
<path d="M680 870 c0 -5 5 -10 10 -10 6 0 10 5 10 10 0 6 -4 10 -10 10 -5 0
-10 -4 -10 -10z"/>
<path d="M1029 853 c-1 -10 0 -22 1 -28 1 -5 9 -50 17 -100 14 -88 14 -90 -6
-106 -45 -37 -11 -67 37 -33 20 14 142 249 142 274 0 5 -15 10 -34 10 -33 0
-53 -20 -40 -41 3 -5 -5 -34 -17 -64 -15 -37 -25 -51 -31 -43 -11 18 -10 106
2 113 6 3 10 13 10 21 0 22 -80 19 -81 -3z"/>
<path d="M784 836 c-21 -11 -21 -12 -4 -34 l18 -22 4 35 c2 19 4 35 3 34 0 -1
-10 -6 -21 -13z"/>
<path d="M650 740 c0 -5 7 -10 15 -10 8 0 15 5 15 10 0 6 -7 10 -15 10 -8 0
-15 -4 -15 -10z"/>
</g>
</svg>
