<svg t="1683798201942" class="icon" viewBox="0 0 1024 1024" version="1.1" xmlns="http://www.w3.org/2000/svg" p-id="2436" width="200" height="200"><path d="M841.762 53.897H350.415c-60.299 0-109.214 48.881-109.214 109.181h41.669c0-30.117 37.429-73.254 67.544-73.254h491.347c30.117 0 68.513 43.138 68.513 73.254v491.381c0 30.117-38.396 69.114-68.513 69.114v40.066c60.301 0 109.215-48.881 109.215-109.181v-491.38c0.001-60.3-48.913-109.181-109.214-109.181z" fill="" p-id="2437"></path><path d="M677.99 268.97H186.61c-60.267 0-109.181 48.898-109.181 109.198v491.363c0 60.301 48.914 109.198 109.181 109.198h491.38c60.268 0 109.181-48.897 109.181-109.198V378.168c0-60.3-48.913-109.198-109.181-109.198z m71.353 600.561c0 30.135-41.235 70.399-71.353 70.399H186.61c-30.117 0-71.352-40.265-71.352-70.399V378.168c0-30.134 41.235-69.449 71.352-69.449h491.38c30.117 0 71.353 39.315 71.353 69.449v491.363z" fill="" p-id="2438"></path><path d="M155.726 444.728v42.621h382.2v-42.621h-382.2z m0 151.819h382.2v-41.336h-382.2v41.336z m0 109.197h382.2v-41.336h-382.2v41.336z m0 109.181h218.395v-40.066H155.726v40.066z" fill="" p-id="2439"></path></svg>